<svg width="14" height="14" viewBox="0 0 14 14" fill="none" xmlns="http://www.w3.org/2000/svg">
<path fill-rule="evenodd" clip-rule="evenodd" d="M9.21286 0.583328C9.45436 0.583328 9.65036 0.779328 9.65036 1.02083L9.65063 1.51538C10.5024 1.57378 11.2097 1.86552 11.7104 2.36722C12.257 2.91614 12.5446 3.70539 12.5417 4.65214V9.97389C12.5417 11.9176 11.3073 13.1251 9.32107 13.1251H4.38724C2.40099 13.1251 1.16666 11.9006 1.16666 9.92955V4.65097C1.16666 2.81767 2.26744 1.64088 4.06272 1.51558L4.06308 1.02083C4.06308 0.779328 4.25908 0.583328 4.50058 0.583328C4.74208 0.583328 4.93808 0.779328 4.93808 1.02083L4.93791 1.50441H8.77507L8.77536 1.02083C8.77536 0.779328 8.97136 0.583328 9.21286 0.583328ZM11.6667 5.77733H2.04166V9.92955C2.04166 11.4264 2.87466 12.2501 4.38724 12.2501H9.32107C10.8337 12.2501 11.6667 11.4416 11.6667 9.97389L11.6667 5.77733ZM9.45069 9.44784C9.69219 9.44784 9.88819 9.64384 9.88819 9.88534C9.88819 10.1268 9.69219 10.3228 9.45069 10.3228C9.20919 10.3228 9.01086 10.1268 9.01086 9.88534C9.01086 9.64384 9.20394 9.44784 9.44544 9.44784H9.45069ZM6.86215 9.44784C7.10365 9.44784 7.29965 9.64384 7.29965 9.88534C7.29965 10.1268 7.10365 10.3228 6.86215 10.3228C6.62065 10.3228 6.42231 10.1268 6.42231 9.88534C6.42231 9.64384 6.6154 9.44784 6.8569 9.44784H6.86215ZM4.26818 9.44784C4.50968 9.44784 4.70568 9.64384 4.70568 9.88534C4.70568 10.1268 4.50968 10.3228 4.26818 10.3228C4.02668 10.3228 3.82776 10.1268 3.82776 9.88534C3.82776 9.64384 4.02143 9.44784 4.26293 9.44784H4.26818ZM9.45069 7.1806C9.69219 7.1806 9.88819 7.3766 9.88819 7.6181C9.88819 7.8596 9.69219 8.0556 9.45069 8.0556C9.20919 8.0556 9.01086 7.8596 9.01086 7.6181C9.01086 7.3766 9.20394 7.1806 9.44544 7.1806H9.45069ZM6.86215 7.1806C7.10365 7.1806 7.29965 7.3766 7.29965 7.6181C7.29965 7.8596 7.10365 8.0556 6.86215 8.0556C6.62065 8.0556 6.42231 7.8596 6.42231 7.6181C6.42231 7.3766 6.6154 7.1806 6.8569 7.1806H6.86215ZM4.26818 7.1806C4.50968 7.1806 4.70568 7.3766 4.70568 7.6181C4.70568 7.8596 4.50968 8.0556 4.26818 8.0556C4.02668 8.0556 3.82776 7.8596 3.82776 7.6181C3.82776 7.3766 4.02143 7.1806 4.26293 7.1806H4.26818ZM8.77507 2.37941H4.93791L4.93808 2.94058C4.93808 3.18208 4.74208 3.37808 4.50058 3.37808C4.25908 3.37808 4.06308 3.18208 4.06308 2.94058L4.06277 2.39265C2.75597 2.50243 2.04166 3.29458 2.04166 4.65097V4.90233H11.6667L11.6667 4.65097C11.669 3.93055 11.4753 3.37055 11.0909 2.98555C10.7535 2.64711 10.2602 2.44498 9.65086 2.39293L9.65036 2.94058C9.65036 3.18208 9.45436 3.37808 9.21286 3.37808C8.97136 3.37808 8.77536 3.18208 8.77536 2.94058L8.77507 2.37941Z" fill="white"/>
</svg>
