<svg width="24" height="25" viewBox="0 0 24 25" fill="none" xmlns="http://www.w3.org/2000/svg">
<g clip-path="url(#clip0_1_919)">
<path d="M12 24.5C5.37225 24.5 0 19.1278 0 12.5C0 5.87225 5.37225 0.5 12 0.5C18.6278 0.5 24 5.87225 24 12.5C24 19.1278 18.6278 24.5 12 24.5ZM7.929 9.16025L6.0765 17.6232C6.06292 17.6751 6.06697 17.73 6.08802 17.7793C6.10907 17.8286 6.14591 17.8695 6.19275 17.8955L11.8725 21.4543C11.9145 21.4805 11.9595 21.4918 12.0023 21.4918C12.0485 21.4922 12.0938 21.4792 12.1327 21.4543L17.8125 17.8955C17.8592 17.8693 17.8959 17.8284 17.9168 17.7791C17.9377 17.7298 17.9416 17.675 17.928 17.6232L16.0755 9.16025C16.0685 9.12491 16.0536 9.0916 16.032 9.06275L12.1995 3.82625C12.1774 3.79475 12.1477 3.76922 12.1133 3.75194C12.0789 3.73467 12.0407 3.72619 12.0023 3.72725C11.9639 3.72631 11.9259 3.73485 11.8916 3.75212C11.8573 3.76939 11.8278 3.79485 11.8057 3.82625L7.97325 9.0635C7.95139 9.09228 7.93627 9.1256 7.929 9.161V9.16025ZM6.88275 16.1855L8.208 10.133L8.9655 12.5112L6.88275 16.1855ZM6.72075 17.4455L9.1635 13.1345L10.536 17.4447H6.72L6.72075 17.4455ZM7.1445 17.9255H10.689L11.5725 20.6998L7.1445 17.9247V17.9255ZM9.28725 11.942L8.43 9.251L11.76 4.70225V7.57925L9.28725 11.942ZM12.0023 20.4688L11.1923 17.9247H12.8123L12.0023 20.4688ZM12.4327 20.6998L13.3162 17.9247H16.8608L12.4327 20.6998ZM15.7972 10.133L17.1217 16.1855L15.0397 12.5112L15.7972 10.1337V10.133ZM14.7172 11.942L12.2452 7.58V4.70225L15.5753 9.251L14.7172 11.942ZM17.2838 17.4447H13.47L14.8425 13.1345L17.2845 17.4447H17.2838ZM12.0023 8.1245L14.5192 12.5653L12.9653 17.4447H11.04L9.486 12.5653L12.0023 8.1245Z" fill="white"/>
</g>
<defs>
<clipPath id="clip0_1_919">
<rect width="24" height="24" fill="white" transform="translate(0 0.5)"/>
</clipPath>
</defs>
</svg>
