<svg width="171" height="43" viewBox="0 0 171 43" fill="none" xmlns="http://www.w3.org/2000/svg">
<g clip-path="url(#clip0_1_798)">
<path d="M37.625 21.5C37.625 12.5977 30.4023 5.375 21.5 5.375V37.625C30.4023 37.625 37.625 30.4023 37.625 21.5ZM43 21.5C43 33.3754 33.3754 43 21.5 43C9.62461 43 0 33.3754 0 21.5C0 9.62461 9.62461 0 21.5 0C33.3754 0 43 9.62461 43 21.5Z" fill="url(#paint0_linear_1_798)"/>
</g>
<path d="M80.3665 29.3216C79.0955 29.3216 77.9163 29.1225 76.8291 28.7244C75.7571 28.3109 74.823 27.729 74.0267 26.9786C73.2457 26.2282 72.6332 25.3477 72.1891 24.337C71.745 23.311 71.5229 22.1855 71.5229 20.9604C71.5229 19.7353 71.745 18.6174 72.1891 17.6067C72.6332 16.5807 73.2457 15.6925 74.0267 14.9422C74.823 14.1918 75.7571 13.6175 76.8291 13.2194C77.9163 12.8059 79.0955 12.5992 80.3665 12.5992C81.8519 12.5992 83.1765 12.8595 84.3404 13.3802C85.5195 13.9008 86.4996 14.6512 87.2806 15.6313L84.3863 18.2499C83.8657 17.6373 83.2914 17.1703 82.6635 16.8487C82.051 16.5271 81.3619 16.3663 80.5962 16.3663C79.9377 16.3663 79.3328 16.4735 78.7816 16.6879C78.2303 16.9023 77.7555 17.2162 77.3574 17.6297C76.9746 18.0278 76.6683 18.5102 76.4386 19.0768C76.2242 19.6434 76.117 20.2713 76.117 20.9604C76.117 21.6495 76.2242 22.2774 76.4386 22.844C76.6683 23.4106 76.9746 23.9006 77.3574 24.3141C77.7555 24.7122 78.2303 25.0185 78.7816 25.2329C79.3328 25.4473 79.9377 25.5545 80.5962 25.5545C81.3619 25.5545 82.051 25.3937 82.6635 25.0721C83.2914 24.7505 83.8657 24.2834 84.3863 23.6709L87.2806 26.2895C86.4996 27.2543 85.5195 28.0046 84.3404 28.5406C83.1765 29.0613 81.8519 29.3216 80.3665 29.3216ZM89.3084 29V12.9208H96.6589C98.129 12.9208 99.3924 13.1581 100.449 13.6329C101.521 14.1076 102.348 14.7967 102.93 15.7002C103.512 16.5884 103.803 17.645 103.803 18.8701C103.803 20.0799 103.512 21.1288 102.93 22.017C102.348 22.8899 101.521 23.5637 100.449 24.0384C99.3924 24.4978 98.129 24.7275 96.6589 24.7275H91.8352L93.8565 22.821V29H89.3084ZM99.2546 29L95.2577 23.1426H100.104L104.124 29H99.2546ZM93.8565 23.3034L91.8352 21.2131H96.3833C97.3327 21.2131 98.0371 21.0063 98.4966 20.5929C98.9713 20.1794 99.2086 19.6051 99.2086 18.8701C99.2086 18.1197 98.9713 17.5378 98.4966 17.1243C98.0371 16.7109 97.3327 16.5041 96.3833 16.5041H91.8352L93.8565 14.4138V23.3034ZM110.153 29V22.2008L111.21 24.9343L104.02 12.9208H108.821L114.012 21.6265H111.233L116.447 12.9208H120.857L113.691 24.9343L114.701 22.2008V29H110.153ZM121.947 29V12.9208H129.297C130.768 12.9208 132.031 13.1581 133.088 13.6329C134.159 14.1076 134.986 14.7967 135.568 15.7002C136.15 16.5884 136.441 17.645 136.441 18.8701C136.441 20.0799 136.15 21.1288 135.568 22.017C134.986 22.9052 134.159 23.5943 133.088 24.0844C132.031 24.5591 130.768 24.7964 129.297 24.7964H124.474L126.495 22.821V29H121.947ZM126.495 23.3034L124.474 21.2131H129.022C129.971 21.2131 130.676 21.0063 131.135 20.5929C131.61 20.1794 131.847 19.6051 131.847 18.8701C131.847 18.1197 131.61 17.5378 131.135 17.1243C130.676 16.7109 129.971 16.5041 129.022 16.5041H124.474L126.495 14.4138V23.3034ZM141.678 29V16.5271H136.739V12.9208H151.141V16.5271H146.226V29H141.678ZM160.72 29.3216C159.434 29.3216 158.247 29.1149 157.16 28.7014C156.072 28.2879 155.123 27.706 154.311 26.9556C153.515 26.19 152.895 25.3018 152.451 24.2911C152.007 23.2804 151.784 22.1702 151.784 20.9604C151.784 19.7506 152.007 18.6404 152.451 17.6297C152.895 16.619 153.515 15.7385 154.311 14.9881C155.123 14.2224 156.072 13.6329 157.16 13.2194C158.247 12.8059 159.434 12.5992 160.72 12.5992C162.022 12.5992 163.208 12.8059 164.28 13.2194C165.368 13.6329 166.309 14.2224 167.106 14.9881C167.902 15.7385 168.522 16.619 168.966 17.6297C169.426 18.6404 169.655 19.7506 169.655 20.9604C169.655 22.1702 169.426 23.288 168.966 24.3141C168.522 25.3247 167.902 26.2053 167.106 26.9556C166.309 27.706 165.368 28.2879 164.28 28.7014C163.208 29.1149 162.022 29.3216 160.72 29.3216ZM160.72 25.5545C161.332 25.5545 161.899 25.4473 162.42 25.2329C162.956 25.0185 163.415 24.7122 163.798 24.3141C164.196 23.9006 164.502 23.4106 164.717 22.844C164.946 22.2774 165.061 21.6495 165.061 20.9604C165.061 20.256 164.946 19.6281 164.717 19.0768C164.502 18.5102 164.196 18.0278 163.798 17.6297C163.415 17.2162 162.956 16.9023 162.42 16.6879C161.899 16.4735 161.332 16.3663 160.72 16.3663C160.107 16.3663 159.533 16.4735 158.997 16.6879C158.476 16.9023 158.017 17.2162 157.619 17.6297C157.236 18.0278 156.93 18.5102 156.7 19.0768C156.486 19.6281 156.379 20.256 156.379 20.9604C156.379 21.6495 156.486 22.2774 156.7 22.844C156.93 23.4106 157.236 23.9006 157.619 24.3141C158.017 24.7122 158.476 25.0185 158.997 25.2329C159.533 25.4473 160.107 25.5545 160.72 25.5545Z" fill="white"/>
<defs>
<linearGradient id="paint0_linear_1_798" x1="21.5" y1="0" x2="21.5" y2="43" gradientUnits="userSpaceOnUse">
<stop stop-color="#7A9EEF"/>
<stop offset="1" stop-color="#E497FA"/>
</linearGradient>
<clipPath id="clip0_1_798">
<rect width="43" height="43" fill="white"/>
</clipPath>
</defs>
</svg>
