<svg width="59" height="29" viewBox="0 0 59 29" fill="none" xmlns="http://www.w3.org/2000/svg">
<rect width="59" height="29" rx="14.5" fill="black"/>
<circle cx="14" cy="14" r="4" fill="#05EEF4"/>
<path d="M25.84 19.2V9.8H26.48V19.2H25.84ZM26.09 18.08C25.5567 18.08 25.0467 18 24.56 17.84C24.0733 17.6733 23.69 17.46 23.41 17.2L23.78 16.42C24.0467 16.6533 24.3867 16.8467 24.8 17C25.2133 17.1533 25.6433 17.23 26.09 17.23C26.4967 17.23 26.8267 17.1833 27.08 17.09C27.3333 16.9967 27.52 16.87 27.64 16.71C27.76 16.5433 27.82 16.3567 27.82 16.15C27.82 15.91 27.74 15.7167 27.58 15.57C27.4267 15.4233 27.2233 15.3067 26.97 15.22C26.7233 15.1267 26.45 15.0467 26.15 14.98C25.85 14.9133 25.5467 14.8367 25.24 14.75C24.94 14.6567 24.6633 14.54 24.41 14.4C24.1633 14.26 23.9633 14.0733 23.81 13.84C23.6567 13.6 23.58 13.2933 23.58 12.92C23.58 12.56 23.6733 12.23 23.86 11.93C24.0533 11.6233 24.3467 11.38 24.74 11.2C25.14 11.0133 25.6467 10.92 26.26 10.92C26.6667 10.92 27.07 10.9733 27.47 11.08C27.87 11.1867 28.2167 11.34 28.51 11.54L28.18 12.34C27.88 12.14 27.5633 11.9967 27.23 11.91C26.8967 11.8167 26.5733 11.77 26.26 11.77C25.8667 11.77 25.5433 11.82 25.29 11.92C25.0367 12.02 24.85 12.1533 24.73 12.32C24.6167 12.4867 24.56 12.6733 24.56 12.88C24.56 13.1267 24.6367 13.3233 24.79 13.47C24.95 13.6167 25.1533 13.7333 25.4 13.82C25.6533 13.9067 25.93 13.9867 26.23 14.06C26.53 14.1267 26.83 14.2033 27.13 14.29C27.4367 14.3767 27.7133 14.49 27.96 14.63C28.2133 14.77 28.4167 14.9567 28.57 15.19C28.7233 15.4233 28.8 15.7233 28.8 16.09C28.8 16.4433 28.7033 16.7733 28.51 17.08C28.3167 17.38 28.0167 17.6233 27.61 17.81C27.21 17.99 26.7033 18.08 26.09 18.08ZM29.5809 18V17.32L32.4309 14.57C32.6843 14.33 32.8709 14.12 32.9909 13.94C33.1176 13.7533 33.2009 13.5833 33.2409 13.43C33.2876 13.27 33.3109 13.1167 33.3109 12.97C33.3109 12.61 33.1843 12.3267 32.9309 12.12C32.6776 11.9133 32.3076 11.81 31.8209 11.81C31.4476 11.81 31.1109 11.8733 30.8109 12C30.5109 12.12 30.2509 12.31 30.0309 12.57L29.3509 11.98C29.6176 11.64 29.9743 11.38 30.4209 11.2C30.8743 11.0133 31.3709 10.92 31.9109 10.92C32.3976 10.92 32.8209 11 33.1809 11.16C33.5409 11.3133 33.8176 11.5367 34.0109 11.83C34.2109 12.1233 34.3109 12.47 34.3109 12.87C34.3109 13.0967 34.2809 13.32 34.2209 13.54C34.1609 13.76 34.0476 13.9933 33.8809 14.24C33.7143 14.4867 33.4743 14.7633 33.1609 15.07L30.6209 17.52L30.3809 17.13H34.6109V18H29.5809ZM38.2834 18.08C37.7367 18.08 37.2467 17.94 36.8134 17.66C36.3867 17.38 36.0467 16.9733 35.7934 16.44C35.5467 15.9067 35.4234 15.26 35.4234 14.5C35.4234 13.74 35.5467 13.0933 35.7934 12.56C36.0467 12.0267 36.3867 11.62 36.8134 11.34C37.2467 11.06 37.7367 10.92 38.2834 10.92C38.8234 10.92 39.31 11.06 39.7434 11.34C40.1767 11.62 40.5167 12.0267 40.7634 12.56C41.01 13.0933 41.1334 13.74 41.1334 14.5C41.1334 15.26 41.01 15.9067 40.7634 16.44C40.5167 16.9733 40.1767 17.38 39.7434 17.66C39.31 17.94 38.8234 18.08 38.2834 18.08ZM38.2834 17.19C38.65 17.19 38.97 17.09 39.2434 16.89C39.5234 16.69 39.74 16.39 39.8934 15.99C40.0534 15.59 40.1334 15.0933 40.1334 14.5C40.1334 13.9067 40.0534 13.41 39.8934 13.01C39.74 12.61 39.5234 12.31 39.2434 12.11C38.97 11.91 38.65 11.81 38.2834 11.81C37.9167 11.81 37.5934 11.91 37.3134 12.11C37.0334 12.31 36.8134 12.61 36.6534 13.01C36.5 13.41 36.4234 13.9067 36.4234 14.5C36.4234 15.0933 36.5 15.59 36.6534 15.99C36.8134 16.39 37.0334 16.69 37.3134 16.89C37.5934 17.09 37.9167 17.19 38.2834 17.19ZM44.9533 18.08C44.4066 18.08 43.9166 17.94 43.4833 17.66C43.0566 17.38 42.7166 16.9733 42.4633 16.44C42.2166 15.9067 42.0933 15.26 42.0933 14.5C42.0933 13.74 42.2166 13.0933 42.4633 12.56C42.7166 12.0267 43.0566 11.62 43.4833 11.34C43.9166 11.06 44.4066 10.92 44.9533 10.92C45.4933 10.92 45.9799 11.06 46.4133 11.34C46.8466 11.62 47.1866 12.0267 47.4333 12.56C47.6799 13.0933 47.8033 13.74 47.8033 14.5C47.8033 15.26 47.6799 15.9067 47.4333 16.44C47.1866 16.9733 46.8466 17.38 46.4133 17.66C45.9799 17.94 45.4933 18.08 44.9533 18.08ZM44.9533 17.19C45.3199 17.19 45.6399 17.09 45.9133 16.89C46.1933 16.69 46.4099 16.39 46.5633 15.99C46.7233 15.59 46.8033 15.0933 46.8033 14.5C46.8033 13.9067 46.7233 13.41 46.5633 13.01C46.4099 12.61 46.1933 12.31 45.9133 12.11C45.6399 11.91 45.3199 11.81 44.9533 11.81C44.5866 11.81 44.2633 11.91 43.9833 12.11C43.7033 12.31 43.4833 12.61 43.3233 13.01C43.1699 13.41 43.0933 13.9067 43.0933 14.5C43.0933 15.0933 43.1699 15.59 43.3233 15.99C43.4833 16.39 43.7033 16.69 43.9833 16.89C44.2633 17.09 44.5866 17.19 44.9533 17.19Z" fill="white"/>
</svg>
