<svg width="57" height="29" viewBox="0 0 57 29" fill="none" xmlns="http://www.w3.org/2000/svg">
<rect width="57" height="29" rx="14.5" fill="black"/>
<circle cx="14" cy="14" r="4" fill="#D79DDA"/>
<path d="M25.84 19.2V9.8H26.48V19.2H25.84ZM26.09 18.08C25.5567 18.08 25.0467 18 24.56 17.84C24.0733 17.6733 23.69 17.46 23.41 17.2L23.78 16.42C24.0467 16.6533 24.3867 16.8467 24.8 17C25.2133 17.1533 25.6433 17.23 26.09 17.23C26.4967 17.23 26.8267 17.1833 27.08 17.09C27.3333 16.9967 27.52 16.87 27.64 16.71C27.76 16.5433 27.82 16.3567 27.82 16.15C27.82 15.91 27.74 15.7167 27.58 15.57C27.4267 15.4233 27.2233 15.3067 26.97 15.22C26.7233 15.1267 26.45 15.0467 26.15 14.98C25.85 14.9133 25.5467 14.8367 25.24 14.75C24.94 14.6567 24.6633 14.54 24.41 14.4C24.1633 14.26 23.9633 14.0733 23.81 13.84C23.6567 13.6 23.58 13.2933 23.58 12.92C23.58 12.56 23.6733 12.23 23.86 11.93C24.0533 11.6233 24.3467 11.38 24.74 11.2C25.14 11.0133 25.6467 10.92 26.26 10.92C26.6667 10.92 27.07 10.9733 27.47 11.08C27.87 11.1867 28.2167 11.34 28.51 11.54L28.18 12.34C27.88 12.14 27.5633 11.9967 27.23 11.91C26.8967 11.8167 26.5733 11.77 26.26 11.77C25.8667 11.77 25.5433 11.82 25.29 11.92C25.0367 12.02 24.85 12.1533 24.73 12.32C24.6167 12.4867 24.56 12.6733 24.56 12.88C24.56 13.1267 24.6367 13.3233 24.79 13.47C24.95 13.6167 25.1533 13.7333 25.4 13.82C25.6533 13.9067 25.93 13.9867 26.23 14.06C26.53 14.1267 26.83 14.2033 27.13 14.29C27.4367 14.3767 27.7133 14.49 27.96 14.63C28.2133 14.77 28.4167 14.9567 28.57 15.19C28.7233 15.4233 28.8 15.7233 28.8 16.09C28.8 16.4433 28.7033 16.7733 28.51 17.08C28.3167 17.38 28.0167 17.6233 27.61 17.81C27.21 17.99 26.7033 18.08 26.09 18.08ZM31.7626 18.08C31.2692 18.08 30.7892 18.0033 30.3226 17.85C29.8626 17.6967 29.4859 17.49 29.1926 17.23L29.6526 16.44C29.8859 16.66 30.1892 16.84 30.5626 16.98C30.9359 17.12 31.3359 17.19 31.7626 17.19C32.2826 17.19 32.6859 17.08 32.9726 16.86C33.2659 16.6333 33.4126 16.33 33.4126 15.95C33.4126 15.5833 33.2726 15.29 32.9926 15.07C32.7192 14.8433 32.2826 14.73 31.6826 14.73H31.1226V14.03L33.2026 11.47L33.3426 11.87H29.5126V11H34.1326V11.68L32.0626 14.23L31.5426 13.92H31.8726C32.7192 13.92 33.3526 14.11 33.7726 14.49C34.1992 14.87 34.4126 15.3533 34.4126 15.94C34.4126 16.3333 34.3159 16.6933 34.1226 17.02C33.9292 17.3467 33.6359 17.6067 33.2426 17.8C32.8559 17.9867 32.3626 18.08 31.7626 18.08ZM36.438 18L39.408 11.42L39.668 11.87H35.508L36.008 11.38V13.12H35.048V11H40.328V11.68L37.498 18H36.438ZM43.2888 18.08C42.7955 18.08 42.3155 18.0033 41.8488 17.85C41.3888 17.6967 41.0122 17.49 40.7188 17.23L41.1788 16.44C41.4122 16.66 41.7155 16.84 42.0888 16.98C42.4622 17.12 42.8588 17.19 43.2788 17.19C43.8122 17.19 44.2222 17.0767 44.5088 16.85C44.7955 16.6233 44.9388 16.32 44.9388 15.94C44.9388 15.68 44.8755 15.4533 44.7488 15.26C44.6222 15.0667 44.4022 14.92 44.0888 14.82C43.7822 14.7133 43.3588 14.66 42.8188 14.66H41.2288L41.5988 11H45.5488V11.87H41.9688L42.4888 11.38L42.1988 14.27L41.6788 13.79H43.0288C43.7288 13.79 44.2922 13.88 44.7188 14.06C45.1455 14.24 45.4555 14.49 45.6488 14.81C45.8422 15.1233 45.9388 15.4867 45.9388 15.9C45.9388 16.3 45.8422 16.6667 45.6488 17C45.4555 17.3267 45.1622 17.59 44.7688 17.79C44.3822 17.9833 43.8888 18.08 43.2888 18.08Z" fill="white"/>
</svg>
