<svg width="24" height="24" viewBox="0 0 24 24" fill="none" xmlns="http://www.w3.org/2000/svg">
<circle cx="12" cy="12" r="12" fill="#E966A4"/>
<g clip-path="url(#clip0_1_904)">
<path d="M12 5C9.07458 5 6.6835 7.37708 6.6835 10.3165C6.68533 10.9044 6.78023 11.4884 6.96467 12.0467C7.09125 12.4264 7.513 12.6376 7.90675 12.511C8.2865 12.3844 8.49766 11.9627 8.37108 11.5683C8.21681 11.1307 8.14521 10.6683 8.15991 10.2045C8.2165 8.22117 9.82008 6.58958 11.8028 6.491C14.0113 6.37842 15.8395 8.13658 15.8395 10.3165C15.8382 11.2948 15.4633 12.2356 14.7916 12.9467C14.1198 13.6579 13.2018 14.0856 12.2252 14.1426C12.2252 14.1426 11.4797 14.1846 11.1139 14.2412C10.9307 14.2692 10.7902 14.2972 10.6922 14.3112C10.6496 14.3252 10.6076 14.2832 10.6216 14.2412L10.7482 13.6222L11.4377 10.4431C11.4776 10.253 11.4408 10.0548 11.3354 9.89158C11.23 9.72839 11.0645 9.6134 10.8747 9.57158C10.6846 9.53149 10.4863 9.56807 10.323 9.67338C10.1597 9.77868 10.0446 9.94418 10.0027 10.1339C10.0027 10.1339 8.34308 17.8701 8.3285 17.9541C8.2445 18.3484 8.49767 18.7416 8.89142 18.8262C9.08156 18.8664 9.27991 18.8299 9.44325 18.7246C9.60659 18.6192 9.7217 18.4536 9.7635 18.2638C9.7775 18.1792 10.0027 17.1526 10.0027 17.1526C10.0826 16.7762 10.2768 16.4337 10.5587 16.1719C10.8406 15.91 11.1965 15.7416 11.5777 15.6896C11.7468 15.6616 12.4077 15.6196 12.4077 15.6196C15.1506 15.4084 17.3165 13.1159 17.3165 10.3171C17.3165 7.3765 14.9254 5 12 5ZM12.3797 17.2372C12.2652 17.2124 12.1469 17.2107 12.0317 17.232C11.9165 17.2533 11.8066 17.2973 11.7085 17.3614C11.6104 17.4254 11.526 17.5083 11.4602 17.6053C11.3944 17.7022 11.3485 17.8113 11.3251 17.9261C11.2259 18.4044 11.5217 18.8827 12.014 18.9813C12.1286 19.006 12.247 19.0077 12.3622 18.9863C12.4775 18.9649 12.5874 18.9209 12.6855 18.8568C12.7836 18.7926 12.8681 18.7097 12.9339 18.6127C12.9998 18.5158 13.0458 18.4067 13.0692 18.2918C13.1672 17.7995 12.8721 17.3352 12.3797 17.2372Z" fill="white"/>
</g>
<defs>
<clipPath id="clip0_1_904">
<rect width="14" height="14" fill="white" transform="translate(5 5)"/>
</clipPath>
</defs>
</svg>
