<svg width="46" height="46" viewBox="0 0 46 46" fill="none" xmlns="http://www.w3.org/2000/svg">
<circle cx="23.18" cy="23" r="18" transform="rotate(16.2881 23.18 23)" fill="black"/>
<g clip-path="url(#clip0_1_961)">
<path d="M17.9523 28.6351L17.4702 30.2849C17.417 30.467 17.5216 30.658 17.7038 30.7112L19.0236 31.0969C19.1111 31.1224 19.2052 31.1122 19.2851 31.0684C19.3651 31.0246 19.4244 30.9508 19.4499 30.8633L19.932 29.2136L20.5919 29.4064L20.1099 31.0562C20.0566 31.2383 20.1613 31.4293 20.3434 31.4825L21.6632 31.8682C21.7507 31.8937 21.8448 31.8835 21.9248 31.8397C22.0047 31.7959 22.064 31.7221 22.0896 31.6346L22.5716 29.9849L22.6825 30.0172C25.3116 30.7854 27.5893 29.9712 28.2785 27.6127C28.8577 25.6304 27.8453 24.1585 26.3343 23.5494L26.3683 23.4332C27.7418 23.4879 28.9651 22.7968 29.4341 21.1919C30.0249 19.1699 28.8658 17.499 26.5495 16.8222L26.4281 16.7867L26.9101 15.137C26.9357 15.0495 26.9254 14.9554 26.8816 14.8754C26.8378 14.7955 26.7641 14.7362 26.6766 14.7106L25.3568 14.325C25.2692 14.2994 25.1752 14.3096 25.0952 14.3534C25.0152 14.3972 24.956 14.471 24.9304 14.5585L24.4483 16.2083L23.6921 15.9873L24.1741 14.3375C24.1997 14.25 24.1895 14.1559 24.1457 14.076C24.1019 13.996 24.0281 13.9367 23.9406 13.9112L22.7171 13.5537C22.6296 13.5281 22.5355 13.5383 22.4556 13.5821C22.3756 13.6259 22.3163 13.6997 22.2908 13.7872L21.8087 15.437L19.1675 14.681C19.08 14.6554 18.9859 14.6656 18.9059 14.7094C18.826 14.7532 18.7667 14.827 18.7411 14.9145L18.3597 16.2198C18.3069 16.4006 18.4085 16.5922 18.5906 16.6454L19.589 16.93C19.8499 17.0081 20.0693 17.1862 20.1993 17.4255C20.3293 17.6648 20.3594 17.9457 20.283 18.2071L18.1601 25.4727C18.0834 25.7352 17.9055 25.9565 17.6656 26.0879C17.4258 26.2193 17.1435 26.25 16.881 26.1733L15.8895 25.8994C15.802 25.8738 15.7079 25.8841 15.628 25.9279C15.548 25.9716 15.4887 26.0454 15.4632 26.1329L15.0775 27.4527C15.0243 27.6349 15.1289 27.8259 15.3111 27.8791L17.9523 28.6351ZM23.1186 17.9498L25.3874 18.6128C26.5831 18.9622 27.0932 19.8246 26.7793 20.8989C26.4434 22.0485 25.4952 22.4748 23.7768 21.9727L22.0874 21.479L23.1186 17.9498ZM21.5564 23.2964L23.9848 24.006C25.4855 24.4445 26.0788 25.4487 25.7147 26.6946C25.3472 27.9524 24.3293 28.3669 22.3074 27.7761L20.4095 27.2215L21.556 23.2977L21.5564 23.2964Z" fill="white"/>
</g>
<defs>
<clipPath id="clip0_1_961">
<rect width="22" height="22" fill="white" transform="translate(15.7067 9.35645) rotate(16.2881)"/>
</clipPath>
</defs>
</svg>
