<svg width="20" height="20" viewBox="0 0 20 20" fill="none" xmlns="http://www.w3.org/2000/svg">
<circle cx="9.54435" cy="9.54435" r="7.695" transform="rotate(16.2881 9.54435 9.54435)" fill="white"/>
<g clip-path="url(#clip0_1_1024)">
<path d="M7.30949 11.9533L7.10341 12.6586C7.08066 12.7364 7.12538 12.8181 7.20325 12.8408L7.76747 13.0057C7.80488 13.0166 7.8451 13.0122 7.87928 12.9935C7.91346 12.9748 7.93881 12.9433 7.94974 12.9059L8.15582 12.2006L8.43793 12.283L8.23185 12.9883C8.2091 13.0661 8.25382 13.1478 8.33169 13.1706L8.89591 13.3354C8.93332 13.3463 8.97354 13.342 9.00772 13.3232C9.0419 13.3045 9.06725 13.273 9.07818 13.2356L9.28425 12.5303L9.33165 12.5442C10.4556 12.8726 11.4293 12.5245 11.7239 11.5162C11.9716 10.6688 11.5387 10.0395 10.8928 9.77914L10.9073 9.72949C11.4945 9.75286 12.0175 9.4574 12.218 8.77131C12.4705 7.90692 11.975 7.19261 10.9848 6.90327L10.9329 6.88811L11.139 6.18283C11.1499 6.14542 11.1455 6.1052 11.1268 6.07102C11.1081 6.03684 11.0765 6.01149 11.0391 6.00056L10.4749 5.8357C10.4375 5.82477 10.3973 5.82914 10.3631 5.84787C10.3289 5.86659 10.3036 5.89813 10.2926 5.93554L10.0865 6.64081L9.76325 6.54635L9.96933 5.84107C9.98026 5.80366 9.97588 5.76344 9.95716 5.72926C9.93844 5.69508 9.9069 5.66973 9.86949 5.6588L9.34646 5.50597C9.30905 5.49504 9.26883 5.49942 9.23465 5.51814C9.20046 5.53687 9.17512 5.5684 9.16419 5.60581L8.95811 6.31109L7.82899 5.9879C7.79158 5.97697 7.75136 5.98134 7.71717 6.00007C7.68299 6.01879 7.65765 6.05033 7.64672 6.08774L7.48367 6.64575C7.46108 6.72305 7.50452 6.80494 7.58238 6.82769L8.00919 6.94934C8.12071 6.98274 8.2145 7.05889 8.27008 7.16118C8.32567 7.26346 8.33854 7.38359 8.30588 7.49533L7.39832 10.6014C7.36552 10.7136 7.28949 10.8082 7.18694 10.8644C7.0844 10.9205 6.96373 10.9337 6.8515 10.9009L6.42765 10.7838C6.39024 10.7728 6.35002 10.7772 6.31584 10.7959C6.28166 10.8147 6.25632 10.8462 6.24538 10.8836L6.08052 11.4478C6.05777 11.5257 6.1025 11.6073 6.18036 11.6301L7.30949 11.9533ZM9.5181 7.38534L10.488 7.66874C10.9992 7.8181 11.2172 8.18679 11.083 8.64607C10.9394 9.1375 10.5341 9.31974 9.79946 9.10509L9.07726 8.89406L9.5181 7.38534ZM8.85024 9.67099L9.88841 9.97434C10.5299 10.1618 10.7836 10.5911 10.6279 11.1237C10.4708 11.6614 10.0357 11.8386 9.17129 11.5861L8.35994 11.349L8.85008 9.67156L8.85024 9.67099Z" fill="black"/>
</g>
<defs>
<clipPath id="clip0_1_1024">
<rect width="9.405" height="9.405" fill="white" transform="translate(6.34949 3.71169) rotate(16.2881)"/>
</clipPath>
</defs>
</svg>
