<svg width="20" height="20" viewBox="0 0 20 20" fill="none" xmlns="http://www.w3.org/2000/svg">
<circle cx="9.54163" cy="9.54163" r="7.69281" transform="rotate(16.2881 9.54163 9.54163)" fill="white"/>
<g clip-path="url(#clip0_1_1006)">
<path d="M9.75435 3.98572L9.68436 4.22913V11.2923L9.75435 11.3638L12.9587 9.42582L9.75435 3.98572Z" fill="#343434"/>
<path d="M9.75437 3.98572L6.54998 9.42583L9.75437 11.3639V7.93559V3.98572Z" fill="#8C8C8C"/>
<path d="M9.75437 11.9846L9.71493 12.0338V14.5499L9.75437 14.6678L12.9607 10.0476L9.75437 11.9846Z" fill="#3C3C3B"/>
<path d="M9.75438 14.6677V11.9846L6.55 10.0475L9.75438 14.6677Z" fill="#8C8C8C"/>
<path d="M9.75437 11.3638L12.9587 9.42585L9.75437 7.93561V11.3638Z" fill="#141414"/>
<path d="M6.55003 9.42585L9.75436 11.3638V7.93561L6.55003 9.42585Z" fill="#343434"/>
</g>
<defs>
<clipPath id="clip0_1_1006">
<rect width="6.41068" height="10.6845" fill="white" transform="translate(6.54998 3.98572)"/>
</clipPath>
</defs>
</svg>
