<svg width="24" height="25" viewBox="0 0 24 25" fill="none" xmlns="http://www.w3.org/2000/svg">
<circle cx="12" cy="12.5" r="12" fill="#7D1AFF"/>
<g clip-path="url(#clip0_1_930)">
<path d="M11.5862 18.064C11.5885 18.0126 11.601 17.9622 11.6229 17.9156C11.6448 17.8691 11.6757 17.8274 11.7138 17.7929C11.7519 17.7584 11.7964 17.7318 11.8448 17.7147C11.8932 17.6976 11.9445 17.6903 11.9957 17.6933C12.047 17.6962 12.0971 17.7093 12.1432 17.7318C12.1894 17.7543 12.2306 17.7858 12.2646 17.8244C12.2985 17.863 12.3244 17.908 12.3409 17.9567C12.3574 18.0055 12.3641 18.057 12.3606 18.1084C12.3536 18.2105 12.3067 18.3058 12.2301 18.3735C12.1535 18.4412 12.0534 18.4759 11.9515 18.47C11.8496 18.4642 11.7541 18.4183 11.6857 18.3423C11.6173 18.2663 11.5816 18.1663 11.5862 18.064ZM8.40982 17.6431C8.4542 17.5753 8.52361 17.528 8.60278 17.5115C8.68196 17.4951 8.76441 17.5108 8.83201 17.5553C8.8996 17.5998 8.9468 17.6695 8.96322 17.7489C8.97964 17.8283 8.96394 17.911 8.91956 17.9788C8.89759 18.0124 8.86923 18.0413 8.83612 18.0638C8.80301 18.0864 8.76579 18.1022 8.72658 18.1104C8.68738 18.1185 8.64695 18.1189 8.60762 18.1114C8.56829 18.1038 8.53082 18.0886 8.49735 18.0666C8.46388 18.0445 8.43506 18.0161 8.41255 17.9829C8.39004 17.9497 8.37427 17.9123 8.36614 17.873C8.35801 17.8337 8.35769 17.7931 8.36518 17.7537C8.37268 17.7142 8.38785 17.6767 8.40982 17.6431V17.6431ZM15.2227 17.5232C15.2584 17.5051 15.2974 17.4942 15.3373 17.4912C15.3772 17.4882 15.4174 17.4931 15.4554 17.5057C15.4934 17.5182 15.5286 17.5382 15.559 17.5645C15.5893 17.5907 15.6141 17.6227 15.6321 17.6586C15.6593 17.7126 15.6699 17.7734 15.6625 17.8335C15.6552 17.8935 15.6303 17.95 15.591 17.9959C15.5516 18.0417 15.4996 18.0748 15.4415 18.091C15.3834 18.1071 15.3218 18.1057 15.2645 18.0867C15.2072 18.0678 15.1568 18.0323 15.1197 17.9846C15.0826 17.937 15.0604 17.8793 15.0559 17.819C15.0514 17.7587 15.0649 17.6984 15.0946 17.6458C15.1242 17.5931 15.1688 17.5505 15.2227 17.5232ZM9.14613 16.0247C9.21451 15.9199 9.32155 15.8467 9.44374 15.8211C9.56592 15.7955 9.69323 15.8197 9.79768 15.8882C9.90212 15.9569 9.9751 16.0644 10.0006 16.187C10.0261 16.3096 10.002 16.4374 9.93363 16.5422C9.86484 16.6461 9.75786 16.7185 9.63605 16.7435C9.51424 16.7686 9.3875 16.7443 9.28349 16.6759C9.17949 16.6076 9.10666 16.5007 9.08093 16.3787C9.05519 16.2567 9.07863 16.1294 9.14613 16.0247ZM14.2663 15.8505C14.3213 15.8223 14.3814 15.8053 14.443 15.8004C14.5047 15.7956 14.5667 15.8029 14.6254 15.8221C14.6842 15.8413 14.7387 15.872 14.7857 15.9123C14.8326 15.9526 14.8712 16.0018 14.8992 16.0571C14.9413 16.1398 14.9582 16.2332 14.9477 16.3255C14.9372 16.4178 14.8998 16.5049 14.8403 16.576C14.7807 16.6471 14.7015 16.6991 14.6127 16.7253C14.5239 16.7516 14.4293 16.751 14.3408 16.7237C14.2523 16.6964 14.1738 16.6435 14.115 16.5716C14.0563 16.4998 14.02 16.4122 14.0106 16.3198C14.0013 16.2274 14.0193 16.1342 14.0624 16.052C14.1055 15.9698 14.1718 15.9021 14.253 15.8575L14.2663 15.8505ZM11.4675 15.5621C11.5154 15.4631 11.5916 15.3806 11.6863 15.3251C11.781 15.2696 11.8901 15.2435 11.9996 15.2502C12.3043 15.2685 12.5368 15.5308 12.5192 15.8365C12.5146 15.9187 12.4918 15.9987 12.4526 16.071C12.4133 16.1432 12.3586 16.2058 12.2923 16.2543C12.226 16.3027 12.1498 16.3358 12.0693 16.3512C11.9887 16.3665 11.9057 16.3637 11.8263 16.343C11.747 16.3223 11.6732 16.2842 11.6103 16.2314C11.5473 16.1786 11.4969 16.1125 11.4626 16.0378C11.4282 15.963 11.4109 15.8816 11.4117 15.7994C11.4126 15.7171 11.4316 15.636 11.4675 15.5621ZM6.56581 14.7016C6.6574 14.6559 6.76328 14.6483 6.8604 14.6805C6.95752 14.7127 7.03802 14.7821 7.08437 14.8736C7.13072 14.9651 7.13916 15.0712 7.10786 15.1689C7.07656 15.2666 7.00804 15.3479 6.91724 15.3951C6.82644 15.4424 6.7207 15.4518 6.62305 15.4212C6.5254 15.3906 6.44375 15.3226 6.39587 15.2319C6.348 15.1412 6.33777 15.0353 6.36743 14.9371C6.39709 14.8389 6.46422 14.7564 6.55422 14.7076L6.56576 14.7016H6.56581ZM16.9479 14.8122C16.9756 14.7689 17.0115 14.7316 17.0537 14.7023C17.0958 14.6731 17.1433 14.6525 17.1934 14.6417C17.2436 14.631 17.2953 14.6304 17.3457 14.6398C17.3961 14.6493 17.4441 14.6686 17.487 14.6968C17.5299 14.725 17.5667 14.7614 17.5955 14.804C17.6242 14.8465 17.6443 14.8944 17.6545 14.9448C17.6647 14.9952 17.6648 15.0471 17.6549 15.0975C17.645 15.148 17.6252 15.1959 17.5967 15.2386C17.5398 15.3238 17.4517 15.383 17.3516 15.4034C17.2514 15.4238 17.1473 15.4037 17.0618 15.3476C16.9764 15.2914 16.9164 15.2036 16.8951 15.1034C16.8738 15.0031 16.8927 14.8985 16.9479 14.8122ZM10.4451 13.087C10.6297 12.9871 10.8422 12.9517 11.0491 12.9866C11.2559 13.0214 11.4452 13.1245 11.5871 13.2794C11.729 13.4344 11.8153 13.6324 11.8323 13.8421C11.8494 14.0517 11.7962 14.2611 11.6812 14.4371C11.5957 14.5687 11.4787 14.6768 11.3409 14.7514C11.203 14.826 11.0488 14.8648 10.8921 14.8643C10.6824 14.8641 10.4787 14.7938 10.3133 14.6644C10.1479 14.5351 10.0303 14.3541 9.97898 14.1501C9.92768 13.9462 9.94567 13.7309 10.0301 13.5383C10.1145 13.3458 10.2606 13.1869 10.4451 13.087ZM12.8263 13.0159C13.0402 12.9469 13.2716 12.9567 13.4788 13.0436C13.6861 13.1306 13.8556 13.2889 13.9567 13.4901C14.1894 13.9558 14.0029 14.5226 13.5395 14.7579C13.4079 14.8248 13.2626 14.8602 13.1151 14.8612C12.8904 14.8612 12.6732 14.7807 12.5025 14.6343C12.3318 14.4878 12.2188 14.285 12.184 14.0624C12.1492 13.8398 12.1947 13.6121 12.3125 13.4202C12.4303 13.2283 12.6125 13.085 12.8263 13.0159ZM8.28765 13.5409C8.34111 13.4785 8.40769 13.4289 8.48258 13.3955C8.55748 13.3621 8.63883 13.3458 8.72077 13.3477C8.80271 13.3497 8.8832 13.3698 8.95645 13.4067C9.02969 13.4436 9.09386 13.4963 9.14434 13.5611C9.19482 13.6259 9.23035 13.701 9.24837 13.7812C9.26639 13.8614 9.26644 13.9447 9.24854 14.0249C9.23063 14.1051 9.19521 14.1803 9.14482 14.2452C9.09443 14.31 9.03033 14.3628 8.95713 14.3998C8.84266 14.4577 8.71174 14.474 8.58665 14.4459C8.46156 14.4178 8.35005 14.3471 8.2711 14.2458C8.19215 14.1445 8.15065 14.0189 8.15367 13.8904C8.15669 13.7618 8.20404 13.6383 8.28765 13.5409ZM14.8364 13.5836C15.0044 13.327 15.348 13.2555 15.6038 13.424C15.8592 13.5929 15.9303 13.937 15.7629 14.1938C15.595 14.4504 15.2514 14.5218 14.9956 14.3534C14.7397 14.1849 14.6684 13.8403 14.8364 13.5836ZM8.83354 11.9393C8.86296 11.4252 9.29718 11.0293 9.81026 11.0489C10.3232 11.0684 10.7263 11.4961 10.7169 12.011C10.7076 12.52 10.2983 12.9291 9.79281 12.9387L9.77553 12.9389H9.72402C9.20935 12.9087 8.81495 12.4706 8.83529 11.956L8.83611 11.9388L8.83354 11.9393ZM13.2802 11.9287C13.31 11.4073 13.7557 11.0089 14.2755 11.0389C14.399 11.0452 14.52 11.0762 14.6314 11.1299C14.7428 11.1837 14.8424 11.2591 14.9245 11.3519C15.0445 11.4867 15.1236 11.6533 15.1521 11.8318C15.1807 12.0102 15.1577 12.1932 15.0858 12.359C15.0139 12.5247 14.8961 12.6663 14.7463 12.767C14.5966 12.8676 14.4213 12.9231 14.2411 12.9269L14.2219 12.9271H14.1673C13.6475 12.8972 13.2503 12.4502 13.2801 11.9288L13.2802 11.9287ZM6.59097 11.9717C6.59805 11.8467 6.65434 11.7296 6.74746 11.6462C6.84058 11.5629 6.9629 11.52 7.08753 11.5271C7.21221 11.5343 7.32894 11.5908 7.41208 11.6843C7.49522 11.7777 7.53797 11.9005 7.53094 12.0256C7.52382 12.1506 7.46747 12.2676 7.3743 12.351C7.28112 12.4344 7.15875 12.4772 7.0341 12.47C6.90945 12.4629 6.79274 12.4064 6.70964 12.3129C6.62653 12.2195 6.58385 12.0967 6.59097 11.9717ZM16.4686 11.9503C16.4763 11.8258 16.5329 11.7094 16.6259 11.6265C16.719 11.5437 16.8409 11.5012 16.9651 11.5083C17.0893 11.5153 17.2057 11.5714 17.2888 11.6643C17.3719 11.7572 17.4149 11.8793 17.4085 12.0039C17.4014 12.129 17.345 12.2461 17.2518 12.3295C17.1586 12.4129 17.0362 12.4557 16.9115 12.4487C16.7869 12.4415 16.6702 12.385 16.5872 12.2915C16.5041 12.1981 16.4614 12.0754 16.4686 11.9504V11.9503ZM5.31002 11.6987L5.3214 11.6991C5.36137 11.7013 5.40052 11.7114 5.4366 11.7288C5.47268 11.7462 5.50498 11.7706 5.53164 11.8005C5.55829 11.8305 5.57879 11.8654 5.59194 11.9033C5.6051 11.9413 5.61065 11.9814 5.60829 12.0215C5.60486 12.0813 5.58398 12.1387 5.54825 12.1867C5.51252 12.2347 5.46351 12.271 5.40733 12.2913C5.35115 12.3115 5.29027 12.3148 5.23228 12.3006C5.17428 12.2864 5.12172 12.2554 5.08115 12.2115C5.04057 12.1676 5.01376 12.1126 5.00406 12.0536C4.99436 11.9945 5.00219 11.9338 5.02658 11.8792C5.05097 11.8245 5.09085 11.7783 5.14125 11.7462C5.19164 11.7141 5.25034 11.6976 5.31002 11.6987ZM18.6999 11.6672L18.7126 11.6676C18.7933 11.6724 18.8688 11.7091 18.9226 11.7696C18.9763 11.8301 19.004 11.9096 18.9995 11.9905C18.9961 12.0503 18.9752 12.1079 18.9394 12.1559C18.9037 12.2039 18.8546 12.2403 18.7984 12.2606C18.7422 12.2809 18.6813 12.2842 18.6232 12.2701C18.5651 12.2559 18.5125 12.225 18.4718 12.1811C18.4311 12.1372 18.4042 12.0822 18.3944 12.0231C18.3846 11.964 18.3923 11.9033 18.4166 11.8485C18.4409 11.7938 18.4807 11.7474 18.5311 11.7151C18.5815 11.6829 18.6402 11.6662 18.6999 11.6672ZM10.8839 9.11608C11.0584 9.11525 11.2296 9.16314 11.3784 9.25438C11.5272 9.34562 11.6478 9.47661 11.7266 9.63268C11.7994 9.77691 11.8341 9.93744 11.8274 10.099C11.8208 10.2605 11.773 10.4176 11.6886 10.5553C11.6042 10.693 11.486 10.8067 11.3453 10.8856C11.2046 10.9645 11.0461 11.0058 10.8849 11.0058C10.7101 11.0063 10.5386 10.9579 10.3898 10.866C10.2409 10.7741 10.1206 10.6424 10.0424 10.4856C9.97039 10.3415 9.93633 10.1814 9.9434 10.0204C9.95046 9.85935 9.99843 9.70283 10.0827 9.56565C10.167 9.42846 10.2849 9.31515 10.4251 9.23647C10.5653 9.15779 10.7233 9.11635 10.8839 9.11608ZM13.1074 9.10939C13.3171 9.10967 13.5207 9.18009 13.686 9.3095C13.8514 9.43892 13.9689 9.61994 14.0201 9.82392C14.0713 10.0279 14.0533 10.2432 13.9688 10.4357C13.8843 10.6282 13.7382 10.787 13.5536 10.8868C13.369 10.9867 13.1565 11.0219 12.9497 10.987C12.7429 10.9521 12.5536 10.849 12.4118 10.6941C12.27 10.5391 12.1837 10.3412 12.1667 10.1315C12.1497 9.92187 12.2028 9.71251 12.3178 9.53658C12.4037 9.40524 12.5209 9.29742 12.6587 9.22284C12.7966 9.14827 12.9508 9.10928 13.1074 9.10939ZM8.23608 9.7815C8.40391 9.52479 8.74741 9.45309 9.00334 9.62144C9.25928 9.78972 9.33076 10.1343 9.16303 10.391C8.9952 10.6477 8.6517 10.7195 8.39577 10.5512C8.33483 10.5112 8.28236 10.4596 8.24135 10.3992C8.20034 10.3389 8.17159 10.2711 8.15676 10.1996C8.14192 10.1281 8.1413 10.0543 8.15491 9.9826C8.16852 9.91087 8.1961 9.84253 8.23608 9.7815ZM15.0429 9.57536C15.1079 9.54244 15.1787 9.52271 15.2513 9.51728C15.3239 9.51185 15.3969 9.52083 15.466 9.54372C15.5352 9.56661 15.5991 9.60295 15.6542 9.65065C15.7093 9.69836 15.7545 9.75651 15.7872 9.82176C15.9249 10.096 15.8148 10.4302 15.5415 10.5683C15.2681 10.7064 14.9349 10.596 14.7972 10.3218C14.6596 10.0476 14.7696 9.71342 15.0429 9.57531V9.57536ZM6.40301 8.73689C6.45941 8.65061 6.54767 8.59033 6.64838 8.56932C6.69824 8.55891 6.74966 8.55846 6.7997 8.56799C6.84974 8.57752 6.89742 8.59684 6.94001 8.62485C6.98261 8.65286 7.01928 8.68901 7.04795 8.73124C7.07661 8.77347 7.09671 8.82094 7.10708 8.87096C7.11745 8.92098 7.1179 8.97255 7.1084 9.02274C7.0989 9.07293 7.07964 9.12075 7.05171 9.16347C6.99531 9.24976 6.90705 9.31003 6.80634 9.33104C6.70564 9.35206 6.60073 9.33208 6.51471 9.27551C6.42868 9.21894 6.36859 9.13041 6.34764 9.0294C6.32669 8.92839 6.34661 8.82317 6.40301 8.73689ZM17.0841 8.57946C17.1758 8.53447 17.2815 8.52753 17.3782 8.56017C17.475 8.5928 17.555 8.66237 17.6009 8.75379C17.6469 8.8452 17.655 8.9511 17.6236 9.04852C17.5923 9.14593 17.5239 9.22701 17.4333 9.27417C17.3413 9.32055 17.2348 9.32843 17.137 9.29607C17.0393 9.26372 16.9584 9.19377 16.912 9.1016C16.8658 9.00946 16.858 8.90269 16.8903 8.80477C16.9226 8.70685 16.9923 8.62579 17.0841 8.57941V8.57946ZM11.4376 8.13867C11.4551 7.83232 11.7169 7.59815 12.0224 7.6156C12.3279 7.63304 12.5614 7.89551 12.5441 8.20197C12.5269 8.50832 12.2653 8.7427 11.9599 8.72553C11.6541 8.70804 11.4203 8.44535 11.4376 8.13867ZM9.30894 7.28149C9.36415 7.25359 9.42429 7.23687 9.48595 7.23228C9.5476 7.22769 9.60955 7.23533 9.66826 7.25476C9.72697 7.27418 9.78129 7.30502 9.82811 7.3455C9.87494 7.38599 9.91336 7.43532 9.94118 7.4907C9.969 7.54607 9.98567 7.6064 9.99024 7.66824C9.99482 7.73008 9.9872 7.79221 9.96783 7.8511C9.94846 7.90999 9.91772 7.96447 9.87736 8.01144C9.837 8.05841 9.78781 8.09694 9.7326 8.12485C9.6211 8.1812 9.49185 8.19081 9.37328 8.15158C9.25471 8.11234 9.15654 8.02747 9.10036 7.91564C9.04418 7.8038 9.03459 7.67416 9.07371 7.55524C9.11282 7.43631 9.19744 7.33784 9.30894 7.28149ZM14.0643 7.43299C14.1153 7.35477 14.1883 7.29346 14.274 7.25682C14.3597 7.22018 14.4544 7.20985 14.5459 7.22714C14.6375 7.24443 14.7219 7.28856 14.7885 7.35395C14.8551 7.41935 14.9008 7.50307 14.92 7.59454C14.9391 7.68601 14.9308 7.78111 14.896 7.86784C14.8613 7.95456 14.8017 8.02901 14.7248 8.08178C14.6479 8.13454 14.5571 8.16325 14.4639 8.16428C14.3708 8.1653 14.2794 8.1386 14.2013 8.08755C14.1494 8.05366 14.1047 8.00982 14.0697 7.95856C14.0347 7.90729 14.0101 7.8496 13.9974 7.78879C13.9847 7.72798 13.984 7.66525 13.9955 7.6042C14.007 7.54314 14.0304 7.48496 14.0643 7.43299ZM8.49978 5.90689C8.57178 5.87073 8.65511 5.86461 8.73159 5.88985C8.80807 5.9151 8.87149 5.96966 8.90801 6.04163C8.94453 6.11361 8.95118 6.19715 8.92651 6.27402C8.90184 6.3509 8.84786 6.41486 8.77634 6.45196C8.74046 6.47036 8.7013 6.48146 8.66112 6.48461C8.62094 6.48777 8.58054 6.48292 8.54224 6.47034C8.50394 6.45776 8.4685 6.4377 8.43797 6.41132C8.40743 6.38494 8.3824 6.35276 8.36432 6.31664C8.32826 6.24426 8.32227 6.1605 8.34766 6.0837C8.37305 6.0069 8.42775 5.94332 8.49978 5.90689ZM15.0795 5.99685C15.1014 5.96323 15.1297 5.93427 15.1627 5.91162C15.1958 5.88897 15.233 5.87308 15.2722 5.86484C15.3114 5.85661 15.3518 5.8562 15.3911 5.86363C15.4305 5.87107 15.468 5.88621 15.5015 5.90818C15.535 5.93015 15.5639 5.95854 15.5865 5.9917C15.6091 6.02487 15.6249 6.06217 15.6331 6.10148C15.6413 6.14079 15.6417 6.18133 15.6343 6.2208C15.6269 6.26027 15.6118 6.29789 15.5899 6.3315C15.5457 6.3994 15.4764 6.44689 15.3972 6.46352C15.3181 6.48015 15.2356 6.46457 15.1679 6.4202C15.1002 6.37583 15.0528 6.30631 15.0363 6.22692C15.0197 6.14754 15.0352 6.0648 15.0795 5.9969V5.99685ZM11.858 5.52183C11.9063 5.50418 11.9576 5.49632 12.0089 5.49871C12.0602 5.5011 12.1105 5.51369 12.1569 5.53574C12.2034 5.5578 12.2449 5.58888 12.2793 5.62719C12.3136 5.6655 12.3401 5.71028 12.357 5.75891C12.374 5.80754 12.3811 5.85907 12.378 5.9105C12.375 5.96193 12.3618 6.01224 12.3392 6.0585C12.3166 6.10476 12.285 6.14606 12.2464 6.18C12.2077 6.21394 12.1627 6.23984 12.114 6.25619C12.0173 6.28866 11.9118 6.28163 11.8202 6.23662C11.7286 6.19161 11.6584 6.11224 11.6248 6.0157C11.5911 5.91915 11.5967 5.8132 11.6404 5.72077C11.684 5.62833 11.7622 5.55687 11.858 5.52183Z" fill="white"/>
</g>
<defs>
<clipPath id="clip0_1_930">
<rect width="14" height="13" fill="white" transform="translate(5 5.5)"/>
</clipPath>
</defs>
</svg>
