<svg width="21" height="20" viewBox="0 0 21 20" fill="none" xmlns="http://www.w3.org/2000/svg">
<path fill-rule="evenodd" clip-rule="evenodd" d="M13.7406 1.696C16.5467 1.696 18.432 3.66498 18.432 6.59445V13.3576C18.432 16.287 16.5467 18.256 13.7397 18.256H6.56263C3.75654 18.256 1.87201 16.287 1.87201 13.3576V6.59445C1.87201 3.66498 3.75654 1.696 6.56263 1.696H13.7406ZM13.7406 2.938H6.56263C4.46779 2.938 3.11401 4.37292 3.11401 6.59445V13.3576C3.11401 15.5791 4.46779 17.014 6.56263 17.014H13.7397C15.8354 17.014 17.19 15.5791 17.19 13.3576V6.59445C17.19 4.37292 15.8354 2.938 13.7406 2.938ZM13.4211 9.15934C13.879 9.15934 14.2491 9.52946 14.2491 9.98734C14.2491 10.4452 13.879 10.8153 13.4211 10.8153C12.9632 10.8153 12.589 10.4452 12.589 9.98734C12.589 9.52946 12.9558 9.15934 13.4128 9.15934H13.4211ZM10.1011 9.15934C10.559 9.15934 10.9291 9.52946 10.9291 9.98734C10.9291 10.4452 10.559 10.8153 10.1011 10.8153C9.6432 10.8153 9.26977 10.4452 9.26977 9.98734C9.26977 9.52946 9.63575 9.15934 10.0936 9.15934H10.1011ZM6.7818 9.15934C7.23968 9.15934 7.6098 9.52946 7.6098 9.98734C7.6098 10.4452 7.23968 10.8153 6.7818 10.8153C6.32392 10.8153 5.94966 10.4452 5.94966 9.98734C5.94966 9.52946 6.31646 9.15934 6.77435 9.15934H6.7818Z" fill="white" fill-opacity="0.5"/>
</svg>
