<svg width="21" height="20" viewBox="0 0 21 20" fill="none" xmlns="http://www.w3.org/2000/svg">
<path fill-rule="evenodd" clip-rule="evenodd" d="M10.3732 1.77643C10.9661 1.77643 11.5424 2.01986 11.9555 2.44297C12.3679 2.86856 12.5956 3.4523 12.5782 4.04432C12.5798 4.17763 12.6237 4.33164 12.7032 4.4666C12.8349 4.69016 13.0427 4.84748 13.2894 4.91206C13.5362 4.97334 13.7945 4.94022 14.0139 4.81022C15.0738 4.20495 16.4226 4.56762 17.0279 5.61918L17.5437 6.51259C17.557 6.5366 17.5685 6.55978 17.5785 6.5838C18.1266 7.61962 17.7606 8.92372 16.7422 9.51906C16.594 9.60434 16.4739 9.72357 16.3911 9.86764C16.2628 10.0904 16.2272 10.3553 16.2918 10.5988C16.358 10.8472 16.5162 11.0533 16.7389 11.1809C17.2415 11.4698 17.6166 11.9567 17.7664 12.5189C17.9163 13.0803 17.8343 13.6897 17.5421 14.1923L16.9923 15.1081C16.387 16.148 15.0382 16.5082 13.9891 15.9021C13.8492 15.8218 13.6877 15.7779 13.5271 15.7738H13.5221C13.2828 15.7738 13.0369 15.8756 12.8581 16.0536C12.6767 16.235 12.5774 16.4767 12.579 16.7334C12.5732 17.9498 11.5838 18.9334 10.3732 18.9334H9.33574C8.11941 18.9334 7.12995 17.9448 7.12995 16.7285C7.1283 16.5786 7.08524 16.4229 7.00492 16.288C6.87493 16.0611 6.66462 15.8988 6.42201 15.8342C6.18106 15.7696 5.91693 15.8052 5.7 15.9311C5.18001 16.2209 4.56812 16.2913 4.00839 16.1339C3.44949 15.9758 2.96677 15.5916 2.68359 15.0824L2.16609 14.1906C1.56082 13.1407 1.921 11.7952 2.96925 11.1891C3.2665 11.0177 3.45115 10.6981 3.45115 10.3553C3.45115 10.0125 3.2665 9.69211 2.96925 9.52071C1.92018 8.9113 1.56082 7.56249 2.16526 6.51259L2.72665 5.59102C3.32364 4.55271 4.67328 4.18674 5.72566 4.79118C5.86891 4.87646 6.02457 4.91952 6.18272 4.92117C6.69856 4.92117 7.12995 4.49558 7.13823 3.97228C7.13492 3.39517 7.36262 2.84124 7.77745 2.4231C8.19393 2.00578 8.74704 1.77643 9.33574 1.77643H10.3732ZM10.3732 3.01843H9.33574C9.07906 3.01843 8.83894 3.11862 8.65761 3.29912C8.47711 3.48045 8.37858 3.7214 8.38023 3.97808C8.36284 5.18862 7.37338 6.16317 6.17527 6.16317C5.79108 6.15903 5.42096 6.05553 5.0997 5.86344C4.64844 5.60676 4.0589 5.7649 3.79477 6.22444L3.23421 7.14601C2.97753 7.59147 3.13485 8.18018 3.59191 8.44597C4.27004 8.83844 4.69315 9.57039 4.69315 10.3553C4.69315 11.1403 4.27004 11.8714 3.59025 12.2647C3.13568 12.528 2.97836 13.1134 3.24166 13.5688L3.76413 14.4697C3.8933 14.7023 4.10444 14.8704 4.3487 14.9391C4.59213 15.007 4.8604 14.9781 5.08396 14.8539C5.41268 14.6609 5.79522 14.5607 6.17941 14.5607C6.36902 14.5607 6.55863 14.5848 6.7441 14.6344C7.30383 14.7851 7.78987 15.1594 8.07801 15.662C8.26514 15.9775 8.36864 16.3459 8.37195 16.7218C8.37195 17.26 8.80417 17.6914 9.33574 17.6914H10.3732C10.9023 17.6914 11.3345 17.2625 11.337 16.7334C11.3337 16.1489 11.5622 15.5933 11.9804 15.1751C12.3927 14.7628 12.969 14.5152 13.5453 14.5318C13.9229 14.5409 14.2864 14.6427 14.6068 14.8249C15.068 15.089 15.6567 14.9317 15.9233 14.4763L16.4731 13.5597C16.5956 13.3486 16.6313 13.0836 16.5658 12.8393C16.5013 12.5951 16.339 12.3831 16.1204 12.2581C15.6087 11.9633 15.2435 11.488 15.092 10.9184C14.9421 10.3595 15.0241 9.74924 15.3164 9.24664C15.5068 8.91544 15.7859 8.63641 16.1204 8.44431C16.5692 8.18184 16.7265 7.59478 16.4657 7.13773C16.4549 7.11951 16.445 7.10047 16.4367 7.0806L15.9515 6.23935C15.6873 5.77981 15.0995 5.62166 14.6383 5.88414C14.1398 6.1789 13.547 6.26336 12.9773 6.11349C12.4085 5.96611 11.9315 5.60593 11.6343 5.09754C11.4438 4.77958 11.3403 4.40947 11.337 4.03273C11.3445 3.74955 11.2451 3.49536 11.0646 3.30906C10.8849 3.12358 10.6324 3.01843 10.3732 3.01843ZM9.85813 7.55098C11.404 7.55098 12.6617 8.80954 12.6617 10.3554C12.6617 11.9013 11.404 13.1582 9.85813 13.1582C8.31225 13.1582 7.05452 11.9013 7.05452 10.3554C7.05452 8.80954 8.31225 7.55098 9.85813 7.55098ZM9.85813 8.79298C8.99701 8.79298 8.29652 9.4943 8.29652 10.3554C8.29652 11.2165 8.99701 11.9162 9.85813 11.9162C10.7192 11.9162 11.4197 11.2165 11.4197 10.3554C11.4197 9.4943 10.7192 8.79298 9.85813 8.79298Z" fill="white" fill-opacity="0.5"/>
</svg>
