<svg width="21" height="21" viewBox="0 0 21 21" fill="none" xmlns="http://www.w3.org/2000/svg">
<path fill-rule="evenodd" clip-rule="evenodd" d="M9.94365 1.48828C12.3225 1.48828 14.5581 2.41316 16.2373 4.09317C19.7083 7.56415 19.7083 13.2111 16.2373 16.6821C14.5357 18.3844 12.2447 19.2853 9.92378 19.2853C8.6586 19.2853 7.38513 19.0179 6.19364 18.4664C5.84257 18.3257 5.51385 18.1932 5.27787 18.1932C5.00629 18.1948 4.64114 18.3207 4.28841 18.4424C3.56474 18.6908 2.66388 19.0005 1.99734 18.3364C1.33328 17.6715 1.63964 16.7732 1.88638 16.0503C2.0081 15.6943 2.13313 15.3266 2.13313 15.0484C2.13313 14.8199 2.023 14.5285 1.85409 14.1087C0.303247 10.7594 1.0203 6.7229 3.65085 4.094C5.33004 2.41399 7.56481 1.48828 9.94365 1.48828ZM9.94448 2.73028C7.89684 2.73028 5.97339 3.52682 4.52853 4.97251C2.26478 7.2346 1.64875 10.7081 2.99425 13.6168C3.188 14.0962 3.37513 14.5632 3.37513 15.0484C3.37513 15.5328 3.2087 16.0205 3.06214 16.4511C2.94126 16.8055 2.75827 17.3403 2.87584 17.4579C2.99094 17.5771 3.52914 17.3892 3.88435 17.2675C4.31077 17.1218 4.79432 16.9545 5.27373 16.9512C5.75397 16.9512 6.20689 17.1333 6.6863 17.3263C9.62322 18.6842 13.0967 18.0665 15.3596 15.8044C18.3454 12.817 18.3454 7.95745 15.3596 4.97168C13.9139 3.52599 11.9913 2.73028 9.94448 2.73028ZM13.2125 9.903C13.6696 9.903 14.0405 10.2731 14.0405 10.731C14.0405 11.1889 13.6696 11.559 13.2125 11.559C12.7555 11.559 12.3812 11.1889 12.3812 10.731C12.3812 10.2731 12.748 9.903 13.2051 9.903H13.2125ZM9.89323 9.903C10.3503 9.903 10.7212 10.2731 10.7212 10.731C10.7212 11.1889 10.3503 11.559 9.89323 11.559C9.43617 11.559 9.06191 11.1889 9.06191 10.731C9.06191 10.2731 9.42789 9.903 9.88577 9.903H9.89323ZM6.57361 9.903C7.03066 9.903 7.40161 10.2731 7.40161 10.731C7.40161 11.1889 7.03066 11.559 6.57361 11.559C6.11655 11.559 5.7423 11.1889 5.7423 10.731C5.7423 10.2731 6.1091 9.903 6.56616 9.903H6.57361Z" fill="white" fill-opacity="0.5"/>
</svg>
