<svg width="21" height="21" viewBox="0 0 21 21" fill="none" xmlns="http://www.w3.org/2000/svg">
<path fill-rule="evenodd" clip-rule="evenodd" d="M14.0095 2.23599C16.7668 2.23599 18.8459 4.48567 18.8459 7.46895V13.1557C18.8459 14.6825 18.306 16.0619 17.3248 17.0406C16.4447 17.9175 15.3029 18.382 14.0228 18.382H5.8645C4.5869 18.382 3.44591 17.9183 2.56492 17.0406C1.58374 16.0619 1.04388 14.6825 1.04388 13.1557V7.46895C1.04388 4.48567 3.12299 2.23599 5.88023 2.23599H14.0095ZM14.0095 3.47799H5.88023C3.79781 3.47799 2.28588 5.15635 2.28588 7.46895V13.1557C2.28588 14.3505 2.69657 15.4178 3.44177 16.1605C4.0843 16.8022 4.92306 17.14 5.86698 17.14H14.0095C14.0112 17.1383 14.0178 17.14 14.0228 17.14C14.9675 17.14 15.8055 16.8022 16.448 16.1605C17.194 15.4178 17.6039 14.3505 17.6039 13.1557V7.46895C17.6039 5.15635 16.092 3.47799 14.0095 3.47799ZM15.3145 7.31064C15.5306 7.57643 15.49 7.96724 15.2242 8.18418L11.5446 11.1749C11.0792 11.5442 10.5228 11.7288 9.96724 11.7288C9.41331 11.7288 8.86103 11.5459 8.39901 11.1799L4.68543 8.18583C4.41798 7.97055 4.37658 7.57891 4.59104 7.31229C4.80714 7.04651 5.19796 7.00428 5.46458 7.21873L9.17484 10.2095C9.64101 10.5788 10.2976 10.5788 10.7671 10.2062L14.4401 7.22039C14.7067 7.00262 15.0975 7.04402 15.3145 7.31064Z" fill="white" fill-opacity="0.5"/>
</svg>
