<svg width="24" height="25" viewBox="0 0 24 25" fill="none" xmlns="http://www.w3.org/2000/svg">
<g clip-path="url(#clip0_1_1053)">
<path d="M23.6411 15.402C22.0378 21.834 15.5212 25.744 9.09836 24.1406C2.66617 22.5373 -1.24377 16.0209 0.35964 9.59817C1.96295 3.16617 8.47014 -0.743765 14.9023 0.859641C21.3251 2.45358 25.2445 8.96995 23.6411 15.402Z" fill="url(#paint0_linear_1_1053)"/>
<path d="M17.7136 11.0047C17.948 9.41093 16.7386 8.54843 15.0699 7.97655L15.6136 5.81093L14.3011 5.4828L13.7761 7.59218C13.4292 7.5078 13.073 7.42343 12.7167 7.34843L13.2417 5.22968L11.9292 4.90155L11.3949 7.0578C11.1042 6.99217 10.823 6.92655 10.5511 6.86093V6.85155L8.73235 6.40155L8.38548 7.8078C8.38548 7.8078 9.36048 8.0328 9.34173 8.04217C9.8761 8.17342 9.96985 8.52968 9.9511 8.81093L9.33235 11.2766C9.36985 11.2859 9.41673 11.2953 9.47298 11.3234C9.4261 11.3141 9.37923 11.3047 9.33235 11.2859L8.46985 14.7359C8.40423 14.8953 8.23548 15.139 7.86985 15.0453C7.87923 15.064 6.9136 14.8109 6.9136 14.8109L6.25735 16.3203L7.97298 16.7516C8.29173 16.8359 8.6011 16.9109 8.91048 16.9953L8.36673 19.1797L9.67923 19.5078L10.223 17.3422C10.5792 17.4359 10.9355 17.5297 11.273 17.6141L10.7386 19.7703L12.0511 20.0984L12.5949 17.9141C14.8449 18.3359 16.5324 18.1672 17.2355 16.1328C17.8074 14.5016 17.2074 13.5547 16.0261 12.9359C16.898 12.739 17.5449 12.1672 17.7136 11.0047ZM14.7042 15.2234C14.3011 16.8547 11.5449 15.9734 10.6542 15.7484L11.3761 12.8516C12.2667 13.0766 15.1355 13.5172 14.7042 15.2234ZM15.1167 10.9766C14.7417 12.4672 12.4542 11.7078 11.7136 11.5203L12.3699 8.8953C13.1105 9.0828 15.5011 9.42968 15.1167 10.9766Z" fill="white"/>
</g>
<defs>
<linearGradient id="paint0_linear_1_1053" x1="11.9936" y1="0.494362" x2="11.9936" y2="24.4977" gradientUnits="userSpaceOnUse">
<stop stop-color="#F9AA4B"/>
<stop offset="1" stop-color="#F7931A"/>
</linearGradient>
<clipPath id="clip0_1_1053">
<rect width="24" height="24" fill="white" transform="translate(0 0.5)"/>
</clipPath>
</defs>
</svg>
