<svg width="592" height="149" viewBox="0 0 592 149" fill="none" xmlns="http://www.w3.org/2000/svg">
<path d="M1 126.126C6.44886 127.598 19.1213 125.439 26.2204 105.031C35.0943 79.5209 22.9511 31.9346 49.1056 22.6135C75.2602 13.2925 76.6613 141.334 105.618 146.73C134.575 152.127 171.004 74.6151 188.752 85.8984C206.5 97.1817 224.248 146.24 241.528 141.825C258.809 137.409 263.596 55.4824 300.843 55.4824C328.877 55.4824 325.129 105.031 354.086 105.031C383.043 105.031 402.192 -14.6705 425.077 3.9715C447.962 22.6135 443.732 55.4824 470.38 55.4824C512.414 55.4824 496.005 3.9715 533.431 3.9715C570.858 3.9715 586.564 55.4824 590 72.5" stroke="#D79DDA" stroke-width="3"/>
</svg>
