<svg width="592" height="234" viewBox="0 0 592 234" fill="none" xmlns="http://www.w3.org/2000/svg">
<path d="M1 231.999C12.7736 232.158 36.7982 217.184 38.7075 156.013C40.6167 94.842 62.0956 85.6026 72.5964 88.6293C100 91.5 108.681 125.236 123.191 116.825C141.329 106.312 147.5 9.00003 190.969 2.12968C220.253 -2.49871 202 84.5 248.724 71.4249C272.291 64.83 279.62 34.1217 296.932 30.3257C323.5 24.5 357.511 42.2527 330.344 116.825C301.5 196 358.982 208.582 358.982 208.582C358.982 208.582 396.212 220.051 398.599 149.8C404.5 88.6293 404.041 40.7985 434.874 49.9195C460.5 57.5 439 99.6209 474.968 99.6209C502.592 99.6209 502 35.5 540.837 41.7952C559.679 44.8493 581.09 75.726 590 88.6293" stroke="#05EEF4" stroke-width="3"/>
</svg>
